<svg width="20" height="21" viewBox="0 0 20 21" fill="none" xmlns="http://www.w3.org/2000/svg">
<path d="M9.23603 16.05V7.56999H10.772V16.05H9.23603ZM10.004 5.93799C9.70536 5.93799 9.4547 5.84199 9.25203 5.64999C9.06003 5.45799 8.96403 5.22332 8.96403 4.94599C8.96403 4.65799 9.06003 4.41799 9.25203 4.22599C9.4547 4.03399 9.70536 3.93799 10.004 3.93799C10.3027 3.93799 10.548 4.03399 10.74 4.22599C10.9427 4.40732 11.044 4.63665 11.044 4.91399C11.044 5.20199 10.948 5.44732 10.756 5.64999C10.564 5.84199 10.3134 5.93799 10.004 5.93799Z" fill="white"/>
<circle cx="10" cy="10" r="9.25" stroke="white" stroke-width="1.5"/>
</svg>
